<?xml version="1.0" standalone="no"?>
<!DOCTYPE svg PUBLIC "-//W3C//DTD SVG 20010904//EN"
 "http://www.w3.org/TR/2001/REC-SVG-20010904/DTD/svg10.dtd">
<svg version="1.0" xmlns="http://www.w3.org/2000/svg"
 width="285.000000pt" height="294.000000pt" viewBox="150 10 120 120"
 preserveAspectRatio="xMidYMid meet">

<g transform="translate(0.000000,294.000000) scale(0.100000,-0.100000)"
fill="#ffffff" stroke="none">
<path d="M877 2840 c-19 -23 -54 -79 -77 -124 l-42 -83 -74 -7 c-151 -12 -304
-97 -304 -169 0 -57 -11 -74 -73 -124 l-62 -48 33 -3 c27 -3 41 5 83 42 28 25
55 46 59 46 5 0 16 20 26 45 15 40 22 46 58 55 231 58 292 100 327 222 20 66
73 163 89 163 23 0 77 -89 90 -147 6 -29 11 -93 11 -143 0 -70 4 -99 20 -132
11 -23 31 -105 44 -182 31 -185 41 -217 80 -276 31 -47 105 -126 105 -113 0 4
-19 35 -42 70 -55 83 -82 160 -103 292 -9 60 -30 147 -46 194 -18 53 -29 107
-29 141 0 120 -73 310 -122 319 -8 2 -31 -15 -51 -38z"/>
<path d="M450 2846 c0 -2 14 -41 31 -87 17 -46 33 -92 36 -102 3 -11 11 -16
21 -12 8 3 34 10 58 16 l42 11 -17 28 c-28 47 -171 169 -171 146z"/>
<path d="M1999 2766 c-83 -68 -149 -169 -163 -250 -4 -21 -17 -48 -30 -60 -53
-51 -94 -155 -111 -281 -10 -77 -33 -140 -77 -208 -56 -84 -102 -132 -169
-173 -54 -32 -155 -131 -211 -205 -38 -49 -102 -180 -136 -279 -50 -144 -79
-351 -67 -487 l8 -88 17 95 c60 330 211 592 384 664 58 24 150 21 213 -9 64
-29 134 -99 169 -168 31 -63 74 -208 74 -253 0 -47 18 -52 25 -7 4 21 12 54
18 73 16 50 11 233 -9 313 -10 40 -36 100 -64 147 -27 44 -45 80 -41 80 4 0
40 -33 80 -72 55 -54 72 -67 66 -48 -13 42 -73 152 -115 210 -54 73 -88 148
-101 216 -11 58 -5 82 13 51 9 -17 87 -57 111 -57 6 0 -1 12 -16 28 -64 67
-94 209 -64 309 19 62 69 139 97 148 17 5 20 15 20 69 0 82 42 170 106 222 24
20 47 35 49 32 3 -2 10 -51 17 -108 15 -127 30 -149 151 -210 99 -50 124 -72
138 -121 13 -42 82 -106 129 -119 42 -12 37 1 -20 57 -34 33 -56 66 -71 105
-12 33 -37 73 -56 92 -34 33 -128 75 -208 92 l-40 9 -7 80 c-8 103 -20 149
-39 153 -9 2 -40 -17 -70 -42z"/>
<path d="M2303 2711 c-22 -16 -54 -46 -72 -67 -29 -36 -30 -40 -14 -51 34 -26
51 -15 93 63 23 41 40 77 38 80 -3 2 -23 -9 -45 -25z"/>
<path d="M2260 2343 c1 -17 26 -40 53 -47 39 -9 33 7 -13 33 -22 12 -40 19
-40 14z"/>
<path d="M260 2236 c0 -20 46 -92 80 -125 42 -41 73 -51 150 -51 42 0 52 -4
79 -35 27 -31 31 -43 31 -91 0 -35 -9 -75 -24 -112 -61 -148 -75 -263 -41
-362 21 -64 92 -196 133 -248 16 -20 46 -71 67 -112 44 -87 56 -168 44 -292
-9 -88 -63 -288 -82 -303 -61 -46 -76 -65 -81 -101 l-6 -39 12 34 c8 22 27 43
56 62 59 37 66 49 91 151 56 229 65 358 35 518 -30 165 -35 222 -24 292 15 98
43 166 106 253 30 42 53 79 51 81 -8 8 -100 -102 -135 -159 -57 -95 -82 -179
-82 -286 l0 -94 -20 26 c-11 14 -37 60 -57 102 -35 73 -36 82 -35 180 0 76 6
125 24 186 16 58 23 110 23 169 0 77 -3 89 -29 128 -23 34 -39 45 -79 57 -28
8 -68 15 -90 15 -63 0 -105 27 -149 94 -42 65 -48 73 -48 62z"/>
<path d="M2491 2130 c-49 -62 -76 -71 -174 -64 -143 11 -187 -22 -187 -140 0
-51 6 -74 65 -236 23 -64 27 -85 22 -150 -4 -76 -9 -89 -98 -277 -75 -157 -94
-254 -78 -403 12 -114 57 -272 89 -312 14 -19 33 -27 69 -32 41 -5 55 -13 76
-40 14 -18 25 -43 25 -56 0 -18 3 -21 11 -13 17 17 1 70 -28 93 -15 11 -50 27
-79 36 l-53 15 -30 77 c-36 95 -61 222 -61 314 0 111 26 211 94 363 79 174 86
195 86 261 0 56 -26 173 -59 264 -26 72 -27 136 -1 178 27 43 57 54 121 42 79
-15 111 -12 149 14 29 19 92 106 77 106 -2 0 -18 -18 -36 -40z"/>
<path d="M1385 1237 c-45 -22 -95 -60 -95 -73 0 -2 18 5 40 16 28 14 59 20
108 20 82 0 120 -20 167 -90 29 -43 30 -50 30 -150 0 -99 -2 -109 -33 -168
-18 -35 -45 -79 -60 -98 -33 -41 -138 -121 -207 -157 l-50 -26 155 7 c301 14
335 9 367 -51 19 -37 26 -30 12 11 -6 17 -26 41 -44 52 -35 22 -98 25 -267 12
-49 -4 -88 -5 -88 -2 0 3 23 23 50 44 206 157 289 423 181 580 -62 90 -170
120 -266 73z"/>
<path d="M607 975 c-7 -150 -12 -177 -58 -327 -29 -95 -31 -98 -72 -116 -23
-11 -50 -28 -60 -39 -22 -25 -35 -93 -18 -93 6 0 11 11 11 24 0 36 36 74 83
87 23 6 50 18 59 26 40 36 80 238 79 403 0 181 -16 204 -24 35z"/>
<path d="M1866 750 c12 -42 121 -263 144 -292 31 -40 46 -35 16 5 -13 17 -45
75 -69 127 -51 109 -102 197 -91 160z"/>
<path d="M81 704 c-19 -15 -31 -35 -31 -49 0 -26 46 -75 70 -75 17 0 59 27 75
47 6 8 34 14 68 14 72 2 76 19 3 19 -48 0 -58 4 -89 35 -42 42 -56 43 -96 9z
m70 -14 c37 -20 18 -80 -26 -80 -43 0 -63 58 -27 79 22 13 29 13 53 1z"/>
<path d="M340 650 c-10 -7 4 -10 44 -10 33 0 57 2 54 5 -10 10 -84 14 -98 5z"/>
<path d="M2598 520 l-22 -30 -107 0 c-61 0 -110 -4 -114 -10 -4 -6 35 -10 110
-10 113 0 118 -1 137 -25 40 -51 128 -24 128 40 0 68 -90 91 -132 35z m96 -6
c43 -43 -6 -92 -68 -68 -19 7 -21 55 -4 72 17 17 54 15 72 -4z"/>
<path d="M1065 470 c4 -7 41 -28 81 -46 68 -32 79 -34 171 -33 l98 2 -90 8
c-90 9 -199 38 -244 66 -15 10 -21 11 -16 3z"/>
<path d="M545 310 c99 -4 249 -8 334 -9 l153 -1 48 -35 49 -36 248 5 c136 3
340 9 453 14 l205 8 -210 -3 c-115 -2 -314 -6 -441 -9 l-230 -5 -55 37 -54 38
-340 2 c-283 1 -310 0 -160 -6z"/>
</g>
</svg>
